M48
;DRILL file {KiCad 4.0.6} date Sunday, 05 May 2019 10:37:00
;FORMAT={2:4/ absolute / inch / keep zeros}
FMAT,2
INCH,TZ
T1C0.031
T2C0.039
T3C0.040
T4C0.046
T5C0.051
T6C0.072
T7C0.120
T8C0.169
%
G90
G05
M72
T1
X058614Y-037386
X058614Y-038386
X061614Y-037386
X061614Y-038386
X064126Y-037386
X064126Y-038386
X067126Y-037386
X067126Y-038386
X069638Y-037386
X069638Y-038386
X072638Y-037386
X072638Y-038386
X075150Y-037386
X075150Y-038386
X078150Y-037386
X078150Y-038386
X080858Y-034236
X080858Y-035236
X083858Y-034236
X083858Y-035236
T2
X052559Y-034449
X052559Y-041339
X056496Y-034449
X056496Y-041339
X058071Y-034449
X058071Y-041339
X062008Y-034449
X062008Y-041339
X063583Y-034449
X063583Y-041339
X067520Y-034449
X067520Y-041339
X069094Y-034449
X069094Y-041339
X073031Y-034449
X073031Y-041339
X074606Y-034449
X074803Y-041339
X078543Y-034449
X078740Y-041339
T3
X048466Y-031668
X048466Y-032768
X048466Y-033818
X048466Y-034918
X049566Y-031118
X049566Y-032218
X049566Y-033268
X049566Y-034368
X049566Y-035418
T4
X053543Y-024409
X059055Y-024409
X064567Y-024409
X070079Y-024409
X075591Y-024409
X081102Y-024409
T5
X053543Y-026687
X053543Y-028187
X053543Y-029687
X053543Y-031187
X059055Y-026687
X059055Y-028187
X059055Y-029687
X059055Y-031187
X064567Y-026687
X064567Y-028187
X064567Y-029687
X064567Y-031187
X070079Y-026687
X070079Y-028187
X070079Y-029687
X070079Y-031187
X075591Y-026687
X075591Y-028187
X075591Y-029687
X075591Y-031187
X081102Y-026687
X081102Y-028187
X081102Y-029687
X081102Y-031187
T6
X081496Y-037992
X081496Y-039961
X084252Y-037992
X084252Y-039961
T7
X049016Y-028368
X049016Y-038218
T8
X045079Y-025984
X045079Y-040551
X087598Y-025984
X087598Y-040551
T0
M30
