G04 #@! TF.FileFunction,Soldermask,Top*
%FSLAX46Y46*%
G04 Gerber Fmt 4.6, Leading zero omitted, Abs format (unit mm)*
G04 Created by KiCad (PCBNEW 4.0.6) date Sunday, 05 May 2019 10:36:36*
%MOMM*%
%LPD*%
G01*
G04 APERTURE LIST*
%ADD10C,0.100000*%
%ADD11C,3.900880*%
%ADD12C,2.600000*%
%ADD13C,2.700000*%
%ADD14C,2.400000*%
%ADD15R,2.000000X2.000000*%
%ADD16O,2.000000X2.000000*%
%ADD17R,2.100000X2.400000*%
%ADD18C,4.210000*%
%ADD19R,1.924000X1.924000*%
%ADD20C,1.924000*%
%ADD21C,4.700000*%
G04 APERTURE END LIST*
D10*
D11*
X214000000Y-101500000D03*
X214000000Y-96500000D03*
X207000000Y-101500000D03*
X207000000Y-96500000D03*
D12*
X206000000Y-62000000D03*
X192000000Y-62000000D03*
X178000000Y-62000000D03*
X164000000Y-62000000D03*
X150000000Y-62000000D03*
X136000000Y-62000000D03*
D13*
X206000000Y-67785000D03*
X206000000Y-71595000D03*
X206000000Y-75405000D03*
X206000000Y-79215000D03*
X192000000Y-67785000D03*
X192000000Y-71595000D03*
X192000000Y-75405000D03*
X192000000Y-79215000D03*
X178000000Y-67785000D03*
X178000000Y-71595000D03*
X178000000Y-75405000D03*
X178000000Y-79215000D03*
X164000000Y-67785000D03*
X164000000Y-71595000D03*
X164000000Y-75405000D03*
X164000000Y-79215000D03*
X150000000Y-67785000D03*
X150000000Y-71595000D03*
X150000000Y-75405000D03*
X150000000Y-79215000D03*
X136000000Y-67785000D03*
X136000000Y-71595000D03*
X136000000Y-75405000D03*
X136000000Y-79215000D03*
D14*
X189500000Y-87500000D03*
X199500000Y-87500000D03*
X200000000Y-105000000D03*
X190000000Y-105000000D03*
X175500000Y-87500000D03*
X185500000Y-87500000D03*
X185500000Y-105000000D03*
X175500000Y-105000000D03*
X161500000Y-87500000D03*
X171500000Y-87500000D03*
X171500000Y-105000000D03*
X161500000Y-105000000D03*
X147500000Y-87500000D03*
X157500000Y-87500000D03*
X157500000Y-105000000D03*
X147500000Y-105000000D03*
X133500000Y-87500000D03*
X143500000Y-87500000D03*
X143500000Y-105000000D03*
X133500000Y-105000000D03*
D15*
X213000000Y-89500000D03*
D16*
X205380000Y-86960000D03*
X213000000Y-86960000D03*
X205380000Y-89500000D03*
D15*
X198500000Y-97500000D03*
D16*
X190880000Y-94960000D03*
X198500000Y-94960000D03*
X190880000Y-97500000D03*
D15*
X184500000Y-97500000D03*
D16*
X176880000Y-94960000D03*
X184500000Y-94960000D03*
X176880000Y-97500000D03*
D15*
X170500000Y-97500000D03*
D16*
X162880000Y-94960000D03*
X170500000Y-94960000D03*
X162880000Y-97500000D03*
D15*
X156500000Y-97500000D03*
D16*
X148880000Y-94960000D03*
X156500000Y-94960000D03*
X148880000Y-97500000D03*
D17*
X221250000Y-86250000D03*
X221250000Y-90250000D03*
D18*
X124500000Y-72054000D03*
X124500000Y-97073000D03*
D19*
X125897000Y-79039000D03*
D20*
X125897000Y-81833000D03*
X125897000Y-84500000D03*
X125897000Y-87294000D03*
X125897000Y-89961000D03*
X123103000Y-80436000D03*
X123103000Y-83230000D03*
X123103000Y-85897000D03*
X123103000Y-88691000D03*
D21*
X114500000Y-66000000D03*
X114500000Y-103000000D03*
X222500000Y-66000000D03*
X222500000Y-103000000D03*
M02*
